TITLE ""
FILE "DISC1Track30.mp3" MP3
  TRACK 01 AUDIO
    TITLE "DISC1Track30_01"
    INDEX 01 00:00:00
  TRACK 02 AUDIO
    TITLE "DISC1Track30_02"
    INDEX 01 00:02:43
  TRACK 03 AUDIO
    TITLE "DISC1Track30_03"
    INDEX 01 00:02:62
  TRACK 04 AUDIO
    TITLE "DISC1Track30_04"
    INDEX 01 00:06:31
  TRACK 05 AUDIO
    TITLE "DISC1Track30_05"
    INDEX 01 00:08:47
  TRACK 06 AUDIO
    TITLE "DISC1Track30_06"
    INDEX 01 00:10:58
  TRACK 07 AUDIO
    TITLE "DISC1Track30_07"
    INDEX 01 00:11:02
  TRACK 08 AUDIO
    TITLE "DISC1Track30_08"
    INDEX 01 00:15:45
  TRACK 09 AUDIO
    TITLE "DISC1Track30_09"
    INDEX 01 00:19:37
  TRACK 10 AUDIO
    TITLE "DISC1Track30_10"
    INDEX 01 00:23:25
  TRACK 11 AUDIO
    TITLE "DISC1Track30_11"
    INDEX 01 00:23:49
  TRACK 12 AUDIO
    TITLE "DISC1Track30_12"
    INDEX 01 00:27:11
  TRACK 13 AUDIO
    TITLE "DISC1Track30_13"
    INDEX 01 00:29:39
  TRACK 14 AUDIO
    TITLE "DISC1Track30_14"
    INDEX 01 00:31:58
  TRACK 15 AUDIO
    TITLE "DISC1Track30_15"
    INDEX 01 00:32:06
  TRACK 16 AUDIO
    TITLE "DISC1Track30_16"
    INDEX 01 00:33:45
  TRACK 17 AUDIO
    TITLE "DISC1Track30_17"
    INDEX 01 00:35:32
  TRACK 18 AUDIO
    TITLE "DISC1Track30_18"
    INDEX 01 00:37:13
  TRACK 19 AUDIO
    TITLE "DISC1Track30_19"
    INDEX 01 00:37:37
  TRACK 20 AUDIO
    TITLE "DISC1Track30_20"
    INDEX 01 00:40:63
  TRACK 21 AUDIO
    TITLE "DISC1Track30_21"
    INDEX 01 00:43:08
  TRACK 22 AUDIO
    TITLE "DISC1Track30_22"
    INDEX 01 00:45:25
  TRACK 23 AUDIO
    TITLE "DISC1Track30_23"
    INDEX 01 00:45:46
  TRACK 24 AUDIO
    TITLE "DISC1Track30_24"
    INDEX 01 00:49:26
  TRACK 25 AUDIO
    TITLE "DISC1Track30_25"
    INDEX 01 00:52:50
  TRACK 26 AUDIO
    TITLE "DISC1Track30_26"
    INDEX 01 00:55:68
  TRACK 27 AUDIO
    TITLE "DISC1Track30_27"
    INDEX 01 00:56:17
  TRACK 28 AUDIO
    TITLE "DISC1Track30_28"
    INDEX 01 01:00:12
  TRACK 29 AUDIO
    TITLE "DISC1Track30_29"
    INDEX 01 01:02:74
  TRACK 30 AUDIO
    TITLE "DISC1Track30_30"
    INDEX 01 01:05:59
  TRACK 31 AUDIO
    TITLE "DISC1Track30_31"
    INDEX 01 01:06:07
  TRACK 32 AUDIO
    TITLE "DISC1Track30_32"
    INDEX 01 01:07:44
  TRACK 33 AUDIO
    TITLE "DISC1Track30_33"
    INDEX 01 01:09:35
  TRACK 34 AUDIO
    TITLE "DISC1Track30_34"
    INDEX 01 01:11:20
  TRACK 35 AUDIO
    TITLE "DISC1Track30_35"
    INDEX 01 01:11:42
  TRACK 36 AUDIO
    TITLE "DISC1Track30_36"
    INDEX 01 01:15:51
  TRACK 37 AUDIO
    TITLE "DISC1Track30_37"
    INDEX 01 01:18:26
  TRACK 38 AUDIO
    TITLE "DISC1Track30_38"
    INDEX 01 01:20:70
  TRACK 39 AUDIO
    TITLE "DISC1Track30_39"
    INDEX 01 01:21:21
  TRACK 40 AUDIO
    TITLE "DISC1Track30_40"
    INDEX 01 01:25:26
  TRACK 41 AUDIO
    TITLE "DISC1Track30_41"
    INDEX 01 01:28:44
  TRACK 42 AUDIO
    TITLE "DISC1Track30_42"
    INDEX 01 01:31:39
  TRACK 43 AUDIO
    TITLE "DISC1Track30_43"
    INDEX 01 01:32:03
  TRACK 44 AUDIO
    TITLE "DISC1Track30_44"
    INDEX 01 01:35:03
  TRACK 45 AUDIO
    TITLE "DISC1Track30_45"
    INDEX 01 01:37:59
  TRACK 46 AUDIO
    TITLE "DISC1Track30_46"
    INDEX 01 01:40:37
  TRACK 47 AUDIO
    TITLE "DISC1Track30_47"
    INDEX 01 01:40:59
  TRACK 48 AUDIO
    TITLE "DISC1Track30_48"
    INDEX 01 01:44:72
  TRACK 49 AUDIO
    TITLE "DISC1Track30_49"
    INDEX 01 01:47:39
  TRACK 50 AUDIO
    TITLE "DISC1Track30_50"
    INDEX 01 01:49:72
